<svg xmlns="http://www.w3.org/2000/svg" xml:space="preserve" width="2000" height="533" data-id="lg_WwDHi4vmqt2RByQUfh" data-version="1" viewBox="0 0 2000 533"><g data-padding="20"><g transform="translate(10 10)scale(.96248)"><rect width="448.284" height="448.284" x="304.09" y="-336.327" fill="none" stroke="#fff" stroke-width="22.5" paint-order="stroke" rx="0" ry="0" transform="translate(400 400)scale(1.19)"/><rect width="362.231" height="287.02" x="447.481" y="-277.01" fill="none" rx="0" ry="0" transform="translate(400.5 400.18)"/><path fill="#fff" stroke="#fff" stroke-width="7.32" d="M952.686 349.63h-36.83V204.35h-59.95v-32.52h156.47v32.52h-59.69Zm140.46 0h-36.83v-177.8h86.87q18.03 0 31.87 6.99 13.85 6.98 21.72 19.43t7.87 28.7q0 17.02-9.52 29.97-9.53 12.96-25.27 19.31l39.37 73.4h-41.15l-34.8-68.07h-40.13Zm0-146.05v47.76h46.73q12.45 0 19.94-6.61 7.5-6.6 7.5-17.27t-7.5-17.27q-7.49-6.61-19.94-6.61Zm-13.97-87.63h28.7l18.54 18.55 18.8-18.55h27.94l-29.21 34.29h-35.56Z" paint-order="stroke"/></g><path fill="transparent" stroke="transparent" d="M733.5 0h533v533h-533z"/></g></svg>